<svg width="24" height="24" viewBox="0 0 24 24" fill="none" xmlns="http://www.w3.org/2000/svg">
<path d="M10.4003 16.83L9.53027 16L8.10027 17.4L8.00027 6.57L9.50027 8.13L10.4003 7.18L7.23027 4L4.03027 7.17L4.93027 8.12L6.43027 6.56L6.55027 17.41L4.95027 15.9L4.03027 16.83L7.22027 20L10.4003 16.83ZM19.2003 19.2C19.4124 19.2 19.6159 19.1157 19.766 18.9657C19.916 18.8157 20.0003 18.6122 20.0003 18.4V5.6C20.0003 5.38783 19.916 5.18434 19.766 5.03431C19.6159 4.88429 19.4124 4.8 19.2003 4.8H14.4003C14.2952 4.8 14.1912 4.82069 14.0941 4.8609C13.9971 4.9011 13.9089 4.96003 13.8346 5.03431C13.7603 5.1086 13.7014 5.19679 13.6612 5.29385C13.621 5.39091 13.6003 5.49494 13.6003 5.6V18.4C13.6003 18.5051 13.621 18.6091 13.6612 18.7061C13.7014 18.8032 13.7603 18.8914 13.8346 18.9657C13.9089 19.04 13.9971 19.0989 14.0941 19.1391C14.1912 19.1793 14.2952 19.2 14.4003 19.2H19.2003ZM18.4003 17.6H15.2003V16H16.8003V14.4H15.2003V12.8H16.8003V11.2H15.2003V9.6H16.8003V8H15.2003V6.4H18.4003V17.6Z" fill="#DDDDDE"/>
</svg>
