
        <svg width="52" height="52" viewBox="0 0 52 52" fill="none" xmlns="http://www.w3.org/2000/svg">
        <rect width="52" height="52" rx="10" fill="#A28629" fill-opacity="0.08"/>
        <path d="M26.5545 11.2248L40.0545 16.6247C40.5795 16.8347 40.9995 17.4647 40.9995 18.0197V22.9997C40.9995 23.8247 40.3245 24.4997 39.4995 24.4997H12.4995C11.6745 24.4997 10.9995 23.8247 10.9995 22.9997V18.0197C10.9995 17.4647 11.4195 16.8347 11.9445 16.6247L25.4445 11.2248C25.7445 11.1048 26.2545 11.1048 26.5545 11.2248Z" stroke="url(#paint0_linear_201_1263)" stroke-width="2" stroke-miterlimit="10" stroke-linecap="round" stroke-linejoin="round"/>
        <path d="M40.9995 41H10.9995V36.5C10.9995 35.675 11.6745 35 12.4995 35H39.4995C40.3245 35 40.9995 35.675 40.9995 36.5V41Z" stroke="url(#paint1_linear_201_1263)" stroke-width="2" stroke-miterlimit="10" stroke-linecap="round" stroke-linejoin="round"/>
        <path d="M14.0005 35V24.5" stroke="url(#paint2_linear_201_1263)" stroke-width="2" stroke-miterlimit="10" stroke-linecap="round" stroke-linejoin="round"/>
        <path d="M19.9995 35V24.5" stroke="url(#paint3_linear_201_1263)" stroke-width="2" stroke-miterlimit="10" stroke-linecap="round" stroke-linejoin="round"/>
        <path d="M26 35V24.5" stroke="url(#paint4_linear_201_1263)" stroke-width="2" stroke-miterlimit="10" stroke-linecap="round" stroke-linejoin="round"/>
        <path d="M32.0005 35V24.5" stroke="url(#paint5_linear_201_1263)" stroke-width="2" stroke-miterlimit="10" stroke-linecap="round" stroke-linejoin="round"/>
        <path d="M37.9995 35V24.5" stroke="url(#paint6_linear_201_1263)" stroke-width="2" stroke-miterlimit="10" stroke-linecap="round" stroke-linejoin="round"/>
        <path d="M9.50049 41H42.5005" stroke="url(#paint7_linear_201_1263)" stroke-width="2" stroke-miterlimit="10" stroke-linecap="round" stroke-linejoin="round"/>
        <path d="M26 20.75C27.2426 20.75 28.25 19.7426 28.25 18.5C28.25 17.2574 27.2426 16.25 26 16.25C24.7574 16.25 23.75 17.2574 23.75 18.5C23.75 19.7426 24.7574 20.75 26 20.75Z" stroke="url(#paint8_linear_201_1263)" stroke-width="2" stroke-miterlimit="10" stroke-linecap="round" stroke-linejoin="round"/>
        <defs>
        <linearGradient id="paint0_linear_201_1263" x1="14.826" y1="15.6877" x2="26.5624" y2="32.6586" gradientUnits="userSpaceOnUse">
        <stop stop-color="#C39D53"/>
        <stop offset="1" stop-color="#97733E"/>
        </linearGradient>
        <linearGradient id="paint1_linear_201_1263" x1="14.826" y1="37.044" x2="18.0153" y2="47.3164" gradientUnits="userSpaceOnUse">
        <stop stop-color="#C39D53"/>
        <stop offset="1" stop-color="#97733E"/>
        </linearGradient>
        <linearGradient id="paint2_linear_201_1263" x1="14.128" y1="28.0769" x2="15.3327" y2="28.1508" gradientUnits="userSpaceOnUse">
        <stop stop-color="#C39D53"/>
        <stop offset="1" stop-color="#97733E"/>
        </linearGradient>
        <linearGradient id="paint3_linear_201_1263" x1="20.1271" y1="28.0769" x2="21.3317" y2="28.1508" gradientUnits="userSpaceOnUse">
        <stop stop-color="#C39D53"/>
        <stop offset="1" stop-color="#97733E"/>
        </linearGradient>
        <linearGradient id="paint4_linear_201_1263" x1="26.1276" y1="28.0769" x2="27.3322" y2="28.1508" gradientUnits="userSpaceOnUse">
        <stop stop-color="#C39D53"/>
        <stop offset="1" stop-color="#97733E"/>
        </linearGradient>
        <linearGradient id="paint5_linear_201_1263" x1="32.128" y1="28.0769" x2="33.3327" y2="28.1508" gradientUnits="userSpaceOnUse">
        <stop stop-color="#C39D53"/>
        <stop offset="1" stop-color="#97733E"/>
        </linearGradient>
        <linearGradient id="paint6_linear_201_1263" x1="38.1271" y1="28.0769" x2="39.3317" y2="28.1508" gradientUnits="userSpaceOnUse">
        <stop stop-color="#C39D53"/>
        <stop offset="1" stop-color="#97733E"/>
        </linearGradient>
        <linearGradient id="paint7_linear_201_1263" x1="13.7097" y1="41.3407" x2="13.7978" y2="43.2136" gradientUnits="userSpaceOnUse">
        <stop stop-color="#C39D53"/>
        <stop offset="1" stop-color="#97733E"/>
        </linearGradient>
        <linearGradient id="paint8_linear_201_1263" x1="24.324" y1="17.783" x2="28.1696" y2="20.2603" gradientUnits="userSpaceOnUse">
        <stop stop-color="#C39D53"/>
        <stop offset="1" stop-color="#97733E"/>
        </linearGradient>
        </defs>
        </svg>
        
   