<svg width="24" height="24" viewBox="0 0 24 24" fill="none" xmlns="http://www.w3.org/2000/svg">
<g clip-path="url(#clip0_151_524)">
<path d="M13.2 10.6V13H18V11.4C18 11.1878 17.9157 10.9843 17.7657 10.8343C17.6157 10.6843 17.4122 10.6 17.2 10.6H13.2ZM4.4 7H5.2C5.42 7 5.6 7.18 5.6 7.4V12.6H11.2V9C11.2 8.78 11.38 8.6 11.6 8.6H17.2C17.9426 8.6 18.6548 8.895 19.1799 9.4201C19.705 9.9452 20 10.6574 20 11.4V16.2C20 16.3061 19.9579 16.4078 19.8828 16.4828C19.8078 16.5579 19.7061 16.6 19.6 16.6H18.8C18.6939 16.6 18.5922 16.5579 18.5172 16.4828C18.4421 16.4078 18.4 16.3061 18.4 16.2V15H5.6V16.2C5.6 16.2525 5.58965 16.3045 5.56955 16.3531C5.54945 16.4016 5.51999 16.4457 5.48284 16.4828C5.4457 16.52 5.4016 16.5494 5.35307 16.5696C5.30454 16.5897 5.25253 16.6 5.2 16.6H4.4C4.29391 16.6 4.19217 16.5579 4.11716 16.4828C4.04214 16.4078 4 16.3061 4 16.2V7.4C4 7.18 4.18 7 4.4 7ZM8.4 7.8C8.93043 7.8 9.43914 8.01071 9.81421 8.38579C10.1893 8.76086 10.4 9.26957 10.4 9.8C10.4 10.3304 10.1893 10.8391 9.81421 11.2142C9.43914 11.5893 8.93043 11.8 8.4 11.8C7.86957 11.8 7.36086 11.5893 6.98579 11.2142C6.61071 10.8391 6.4 10.3304 6.4 9.8C6.4 9.26957 6.61071 8.76086 6.98579 8.38579C7.36086 8.01071 7.86957 7.8 8.4 7.8Z" fill="#DDDDDE"/>
</g>
<defs>
<clipPath id="clip0_151_524">
<rect width="24" height="24" fill="white"/>
</clipPath>
</defs>
</svg>
