<svg width="20" height="20" viewBox="0 0 20 20" fill="none" xmlns="http://www.w3.org/2000/svg">
<g clip-path="url(#clip0_265_1586)">
<path d="M17.5 8.33301C17.5 14.1663 10 19.1663 10 19.1663C10 19.1663 2.5 14.1663 2.5 8.33301C2.5 6.34388 3.29018 4.43623 4.6967 3.02971C6.10322 1.62318 8.01088 0.833008 10 0.833008C11.9891 0.833008 13.8968 1.62318 15.3033 3.02971C16.7098 4.43623 17.5 6.34388 17.5 8.33301Z" stroke="url(#paint0_linear_265_1586)" stroke-width="2" stroke-linecap="round" stroke-linejoin="round"/>
<path d="M10 10.833C11.3807 10.833 12.5 9.71372 12.5 8.33301C12.5 6.9523 11.3807 5.83301 10 5.83301C8.61929 5.83301 7.5 6.9523 7.5 8.33301C7.5 9.71372 8.61929 10.833 10 10.833Z" stroke="url(#paint1_linear_265_1586)" stroke-width="2" stroke-linecap="round" stroke-linejoin="round"/>
</g>
<defs>
<linearGradient id="paint0_linear_265_1586" x1="4.41327" y1="7.07843" x2="18.6081" y2="14.5601" gradientUnits="userSpaceOnUse">
<stop stop-color="#C39D53"/>
<stop offset="1" stop-color="#97733E"/>
</linearGradient>
<linearGradient id="paint1_linear_265_1586" x1="4.41327" y1="7.07843" x2="18.6081" y2="14.5601" gradientUnits="userSpaceOnUse">
<stop stop-color="#C39D53"/>
<stop offset="1" stop-color="#97733E"/>
</linearGradient>
<clipPath id="clip0_265_1586">
<rect width="20" height="20" fill="white"/>
</clipPath>
</defs>
</svg>
