
        <svg width="52" height="52" viewBox="0 0 52 52" fill="none" xmlns="http://www.w3.org/2000/svg">
        <rect width="52" height="52" rx="10" fill="#A28629" fill-opacity="0.08"/>
        <path d="M10.9995 41H40.9995" stroke="url(#paint0_linear_201_1262)" stroke-width="2" stroke-miterlimit="10" stroke-linecap="round" stroke-linejoin="round"/>
        <path d="M12.4253 40.9999L12.5003 22.9549C12.5003 22.0399 12.9353 21.1699 13.6553 20.5999L24.1553 12.4249C25.2353 11.5849 26.7503 11.5849 27.8453 12.4249L38.3453 20.5849C39.0803 21.1549 39.5003 22.0249 39.5003 22.9549V40.9999" stroke="url(#paint1_linear_201_1262)" stroke-width="2" stroke-miterlimit="10" stroke-linejoin="round"/>
        <path d="M27.4995 33.5H24.4995C23.2545 33.5 22.2495 34.505 22.2495 35.75V41H29.7495V35.75C29.7495 34.505 28.7445 33.5 27.4995 33.5Z" stroke="url(#paint2_linear_201_1262)" stroke-width="2" stroke-miterlimit="10" stroke-linejoin="round"/>
        <path d="M22.2495 28.625H19.2495C18.4245 28.625 17.7495 27.95 17.7495 27.125V24.875C17.7495 24.05 18.4245 23.375 19.2495 23.375H22.2495C23.0745 23.375 23.7495 24.05 23.7495 24.875V27.125C23.7495 27.95 23.0745 28.625 22.2495 28.625Z" stroke="url(#paint3_linear_201_1262)" stroke-width="2" stroke-miterlimit="10" stroke-linejoin="round"/>
        <path d="M32.75 28.625H29.75C28.925 28.625 28.25 27.95 28.25 27.125V24.875C28.25 24.05 28.925 23.375 29.75 23.375H32.75C33.575 23.375 34.25 24.05 34.25 24.875V27.125C34.25 27.95 33.575 28.625 32.75 28.625Z" stroke="url(#paint4_linear_201_1262)" stroke-width="2" stroke-miterlimit="10" stroke-linejoin="round"/>
        <path d="M36.5 18.5L36.455 14H29.855" stroke="url(#paint5_linear_201_1262)" stroke-width="2" stroke-miterlimit="10" stroke-linecap="round" stroke-linejoin="round"/>
        <defs>
        <linearGradient id="paint0_linear_201_1262" x1="14.826" y1="41.3407" x2="14.9229" y2="43.2127" gradientUnits="userSpaceOnUse">
        <stop stop-color="#C39D53"/>
        <stop offset="1" stop-color="#97733E"/>
        </linearGradient>
        <linearGradient id="paint1_linear_201_1262" x1="15.8787" y1="21.7439" x2="40.0111" y2="36.156" gradientUnits="userSpaceOnUse">
        <stop stop-color="#C39D53"/>
        <stop offset="1" stop-color="#97733E"/>
        </linearGradient>
        <linearGradient id="paint2_linear_201_1262" x1="23.2061" y1="36.0549" x2="29.6155" y2="40.1838" gradientUnits="userSpaceOnUse">
        <stop stop-color="#C39D53"/>
        <stop offset="1" stop-color="#97733E"/>
        </linearGradient>
        <linearGradient id="paint3_linear_201_1262" x1="18.5148" y1="25.1635" x2="23.2199" y2="28.6274" gradientUnits="userSpaceOnUse">
        <stop stop-color="#C39D53"/>
        <stop offset="1" stop-color="#97733E"/>
        </linearGradient>
        <linearGradient id="paint4_linear_201_1262" x1="29.0153" y1="25.1635" x2="33.7203" y2="28.6274" gradientUnits="userSpaceOnUse">
        <stop stop-color="#C39D53"/>
        <stop offset="1" stop-color="#97733E"/>
        </linearGradient>
        <linearGradient id="paint5_linear_201_1262" x1="30.7026" y1="15.533" x2="34.9207" y2="19.5456" gradientUnits="userSpaceOnUse">
        <stop stop-color="#C39D53"/>
        <stop offset="1" stop-color="#97733E"/>
        </linearGradient>
        </defs>
        </svg>
        
    