<svg width="52" height="52" viewBox="0 0 52 52" fill="none" xmlns="http://www.w3.org/2000/svg">
<rect width="52" height="52" rx="10" fill="#A28629" fill-opacity="0.08"/>
<path d="M27.5 41H15.5C12.5 41 11 39.5 11 36.5V24.5C11 21.5 12.5 20 15.5 20H23V36.5C23 39.5 24.5 41 27.5 41Z" stroke="url(#paint0_linear_259_1632)" stroke-width="2.2" stroke-miterlimit="10" stroke-linecap="round" stroke-linejoin="round"/>
<path d="M23.165 14C23.045 14.45 23 14.945 23 15.5V20H15.5V17C15.5 15.35 16.85 14 18.5 14H23.165Z" stroke="url(#paint1_linear_259_1632)" stroke-width="2.2" stroke-miterlimit="10" stroke-linecap="round" stroke-linejoin="round"/>
<path d="M29 20V27.5" stroke="url(#paint2_linear_259_1632)" stroke-width="2.2" stroke-miterlimit="10" stroke-linecap="round" stroke-linejoin="round"/>
<path d="M35 20V27.5" stroke="url(#paint3_linear_259_1632)" stroke-width="2.2" stroke-miterlimit="10" stroke-linecap="round" stroke-linejoin="round"/>
<path d="M33.5 33.5H30.5C29.675 33.5 29 34.175 29 35V41H35V35C35 34.175 34.325 33.5 33.5 33.5Z" stroke="url(#paint4_linear_259_1632)" stroke-width="2.2" stroke-miterlimit="10" stroke-linecap="round" stroke-linejoin="round"/>
<path d="M17 27.5V33.5" stroke="url(#paint5_linear_259_1632)" stroke-width="2.2" stroke-miterlimit="10" stroke-linecap="round" stroke-linejoin="round"/>
<path d="M23 36.5V15.5C23 12.5 24.5 11 27.5 11H36.5C39.5 11 41 12.5 41 15.5V36.5C41 39.5 39.5 41 36.5 41H27.5C24.5 41 23 39.5 23 36.5Z" stroke="url(#paint6_linear_259_1632)" stroke-width="2.2" stroke-miterlimit="10" stroke-linecap="round" stroke-linejoin="round"/>
<defs>
<linearGradient id="paint0_linear_259_1632" x1="13.1046" y1="27.1538" x2="28.9876" y2="35.1931" gradientUnits="userSpaceOnUse">
<stop stop-color="#C39D53"/>
<stop offset="1" stop-color="#97733E"/>
</linearGradient>
<linearGradient id="paint1_linear_259_1632" x1="16.4777" y1="16.044" x2="22.0037" y2="20.5917" gradientUnits="userSpaceOnUse">
<stop stop-color="#C39D53"/>
<stop offset="1" stop-color="#97733E"/>
</linearGradient>
<linearGradient id="paint2_linear_259_1632" x1="29.1276" y1="22.5549" x2="30.3279" y2="22.658" gradientUnits="userSpaceOnUse">
<stop stop-color="#C39D53"/>
<stop offset="1" stop-color="#97733E"/>
</linearGradient>
<linearGradient id="paint3_linear_259_1632" x1="35.1276" y1="22.5549" x2="36.3279" y2="22.658" gradientUnits="userSpaceOnUse">
<stop stop-color="#C39D53"/>
<stop offset="1" stop-color="#97733E"/>
</linearGradient>
<linearGradient id="paint4_linear_259_1632" x1="29.7653" y1="36.0549" x2="35.498" y2="39.0093" gradientUnits="userSpaceOnUse">
<stop stop-color="#C39D53"/>
<stop offset="1" stop-color="#97733E"/>
</linearGradient>
<linearGradient id="paint5_linear_259_1632" x1="17.1276" y1="29.544" x2="18.323" y2="29.6723" gradientUnits="userSpaceOnUse">
<stop stop-color="#C39D53"/>
<stop offset="1" stop-color="#97733E"/>
</linearGradient>
<linearGradient id="paint6_linear_259_1632" x1="25.2959" y1="21.2198" x2="44.2327" y2="28.5392" gradientUnits="userSpaceOnUse">
<stop stop-color="#C39D53"/>
<stop offset="1" stop-color="#97733E"/>
</linearGradient>
</defs>
</svg>
