<svg width="24" height="24" viewBox="0 0 24 24" fill="none" xmlns="http://www.w3.org/2000/svg">
<mask id="mask0_151_573" style="mask-type:alpha" maskUnits="userSpaceOnUse" x="0" y="0" width="24" height="24">
<rect width="24" height="24" fill="#D9D9D9"/>
</mask>
<g mask="url(#mask0_151_573)">
<path d="M5.78947 20C5.29737 20 4.8761 19.8259 4.52566 19.4778C4.17522 19.1296 4 18.7111 4 18.2222V5.77778C4 5.28889 4.17522 4.87037 4.52566 4.52222C4.8761 4.17407 5.29737 4 5.78947 4H18.3158C18.8079 4 19.2292 4.17407 19.5796 4.52222C19.93 4.87037 20.1053 5.28889 20.1053 5.77778V8H18.3158V5.77778H5.78947V18.2222H18.3158V16H20.1053V18.2222C20.1053 18.7111 19.93 19.1296 19.5796 19.4778C19.2292 19.8259 18.8079 20 18.3158 20H5.78947ZM12.9474 16.4444C12.4553 16.4444 12.034 16.2704 11.6836 15.9222C11.3331 15.5741 11.1579 15.1556 11.1579 14.6667V9.33333C11.1579 8.84444 11.3331 8.42593 11.6836 8.07778C12.034 7.72963 12.4553 7.55556 12.9474 7.55556H19.2105C19.7026 7.55556 20.1239 7.72963 20.4743 8.07778C20.8248 8.42593 21 8.84444 21 9.33333V14.6667C21 15.1556 20.8248 15.5741 20.4743 15.9222C20.1239 16.2704 19.7026 16.4444 19.2105 16.4444H12.9474ZM19.2105 14.6667V9.33333H12.9474V14.6667H19.2105ZM15.6316 13.3333C16.0044 13.3333 16.3213 13.2037 16.5822 12.9444C16.8432 12.6852 16.9737 12.3704 16.9737 12C16.9737 11.6296 16.8432 11.3148 16.5822 11.0556C16.3213 10.7963 16.0044 10.6667 15.6316 10.6667C15.2588 10.6667 14.9419 10.7963 14.6809 11.0556C14.42 11.3148 14.2895 11.6296 14.2895 12C14.2895 12.3704 14.42 12.6852 14.6809 12.9444C14.9419 13.2037 15.2588 13.3333 15.6316 13.3333Z" fill="#DDDDDE"/>
</g>
</svg>
