<svg width="52" height="52" viewBox="0 0 52 52" fill="none" xmlns="http://www.w3.org/2000/svg">
<rect width="52" height="52" rx="10" fill="#A28629" fill-opacity="0.08"/>
<path d="M40.955 35.495C40.955 36.035 40.835 36.59 40.58 37.13C40.325 37.67 39.995 38.18 39.56 38.66C38.825 39.47 38.015 40.055 37.1 40.43C36.2 40.805 35.225 41 34.175 41C32.645 41 31.01 40.64 29.285 39.905C27.56 39.17 25.835 38.18 24.125 36.935C22.4 35.675 20.765 34.28 19.205 32.735C17.66 31.175 16.265 29.54 15.02 27.83C13.79 26.12 12.8 24.41 12.08 22.715C11.36 21.005 11 19.37 11 17.81C11 16.79 11.18 15.815 11.54 14.915C11.9 14 12.47 13.16 13.265 12.41C14.225 11.465 15.275 11 16.385 11C16.805 11 17.225 11.09 17.6 11.27C17.99 11.45 18.335 11.72 18.605 12.11L22.085 17.015C22.355 17.39 22.55 17.735 22.685 18.065C22.82 18.38 22.895 18.695 22.895 18.98C22.895 19.34 22.79 19.7 22.58 20.045C22.385 20.39 22.1 20.75 21.74 21.11L20.6 22.295C20.435 22.46 20.36 22.655 20.36 22.895C20.36 23.015 20.375 23.12 20.405 23.24C20.45 23.36 20.495 23.45 20.525 23.54C20.795 24.035 21.26 24.68 21.92 25.46C22.595 26.24 23.315 27.035 24.095 27.83C24.905 28.625 25.685 29.36 26.48 30.035C27.26 30.695 27.905 31.145 28.415 31.415C28.49 31.445 28.58 31.49 28.685 31.535C28.805 31.58 28.925 31.595 29.06 31.595C29.315 31.595 29.51 31.505 29.675 31.34L30.815 30.215C31.19 29.84 31.55 29.555 31.895 29.375C32.24 29.165 32.585 29.06 32.96 29.06C33.245 29.06 33.545 29.12 33.875 29.255C34.205 29.39 34.55 29.585 34.925 29.84L39.89 33.365C40.28 33.635 40.55 33.95 40.715 34.325C40.865 34.7 40.955 35.075 40.955 35.495Z" stroke="url(#paint0_linear_259_1624)" stroke-width="2.4" stroke-miterlimit="10"/>
<path d="M35.75 21.5C35.75 20.6 35.045 19.22 33.995 18.095C33.035 17.06 31.76 16.25 30.5 16.25" stroke="url(#paint1_linear_259_1624)" stroke-width="2.4" stroke-linecap="round" stroke-linejoin="round"/>
<path d="M41 21.5C41 15.695 36.305 11 30.5 11" stroke="url(#paint2_linear_259_1624)" stroke-width="2.4" stroke-linecap="round" stroke-linejoin="round"/>
<defs>
<linearGradient id="paint0_linear_259_1624" x1="14.8208" y1="21.2198" x2="40.4421" y2="37.7002" gradientUnits="userSpaceOnUse">
<stop stop-color="#C39D53"/>
<stop offset="1" stop-color="#97733E"/>
</linearGradient>
<linearGradient id="paint1_linear_259_1624" x1="31.1696" y1="18.0385" x2="35.6562" y2="20.9287" gradientUnits="userSpaceOnUse">
<stop stop-color="#C39D53"/>
<stop offset="1" stop-color="#97733E"/>
</linearGradient>
<linearGradient id="paint2_linear_259_1624" x1="31.8393" y1="14.5769" x2="40.8123" y2="20.3573" gradientUnits="userSpaceOnUse">
<stop stop-color="#C39D53"/>
<stop offset="1" stop-color="#97733E"/>
</linearGradient>
</defs>
</svg>
