<svg width="38" height="38" viewBox="0 0 38 38" fill="none" xmlns="http://www.w3.org/2000/svg">
<path fill-rule="evenodd" clip-rule="evenodd" d="M23.6004 25.8401C21.4555 27.5074 18.7603 28.5003 15.8332 28.5003C8.83756 28.5003 3.1665 22.8293 3.1665 15.8337C3.1665 8.83805 8.83756 3.16699 15.8332 3.16699C22.8288 3.16699 28.4998 8.83805 28.4998 15.8337C28.4998 18.7608 27.507 21.456 25.8396 23.6009L34.3694 32.1307C34.9878 32.7491 34.9878 33.7516 34.3694 34.3699C33.7511 34.9882 32.7486 34.9882 32.1302 34.3699L23.6004 25.8401ZM25.3332 15.8337C25.3332 21.0804 21.0799 25.3337 15.8332 25.3337C10.5865 25.3337 6.33317 21.0804 6.33317 15.8337C6.33317 10.587 10.5865 6.33366 15.8332 6.33366C21.0799 6.33366 25.3332 10.587 25.3332 15.8337Z" fill="#FCFCFD"/>
</svg>
