<svg width="20" height="17" viewBox="0 0 20 17" fill="none" xmlns="http://www.w3.org/2000/svg">
<path d="M19.739 0.66131C18.8912 1.26362 17.9524 1.72429 16.9589 2.02558C16.4257 1.4081 15.717 0.970448 14.9288 0.771813C14.1405 0.573177 13.3107 0.623142 12.5516 0.914951C11.7925 1.20676 11.1406 1.72633 10.6843 2.4034C10.2279 3.08046 9.98898 3.88235 9.99987 4.70061V5.59229C8.44394 5.63293 6.90219 5.28539 5.51191 4.58064C4.12164 3.87588 2.926 2.83579 2.03149 1.55299C2.03149 1.55299 -1.51001 9.5781 6.45837 13.1448C4.63496 14.3913 2.46281 15.0164 0.260742 14.9282C8.22912 19.3866 17.9683 14.9282 17.9683 4.67386C17.9674 4.42549 17.9437 4.17773 17.8974 3.93377C18.801 3.03629 19.4387 1.90316 19.739 0.66131Z" fill="url(#paint0_linear_300_9230)"/>
<defs>
<linearGradient id="paint0_linear_300_9230" x1="2.74521" y1="6.10289" x2="17.3291" y2="17.5401" gradientUnits="userSpaceOnUse">
<stop stop-color="#C39D53"/>
<stop offset="1" stop-color="#97733E"/>
</linearGradient>
</defs>
</svg>
