  <svg width="52" height="52" viewBox="0 0 52 52" fill="none" xmlns="http://www.w3.org/2000/svg">
        <rect width="52" height="52" rx="10" fill="#A28629" fill-opacity="0.08"/>
        <path d="M9.34961 40.54C8.79732 40.54 8.34961 40.9877 8.34961 41.54C8.34961 42.0922 8.79732 42.54 9.34961 42.54V40.54ZM42.6496 42.54C43.2019 42.54 43.6496 42.0922 43.6496 41.54C43.6496 40.9877 43.2019 40.54 42.6496 40.54V42.54ZM25.9996 23.78V24.78V23.78ZM19.3396 17.12H18.3396H19.3396ZM10.4596 34.88H9.45961H10.4596ZM14.8996 30.44V31.44V30.44ZM9.34961 42.54H42.6496V40.54H9.34961V42.54ZM22.7796 23.78V30.44H24.7796V23.78H22.7796ZM27.2196 23.78V30.44H29.2196V23.78H27.2196ZM25.9996 22.78C25.2563 22.78 24.5203 22.6336 23.8336 22.3491L23.0683 24.1969C23.9976 24.5818 24.9937 24.78 25.9996 24.78V22.78ZM23.8336 22.3491C23.1469 22.0647 22.523 21.6478 21.9974 21.1222L20.5832 22.5364C21.2945 23.2477 22.1389 23.8119 23.0683 24.1969L23.8336 22.3491ZM21.9974 21.1222C21.4718 20.5966 21.0549 19.9727 20.7705 19.2859L18.9227 20.0513C19.3076 20.9807 19.8719 21.8251 20.5832 22.5364L21.9974 21.1222ZM20.7705 19.2859C20.486 18.5992 20.3396 17.8632 20.3396 17.12H18.3396C18.3396 18.1259 18.5377 19.122 18.9227 20.0513L20.7705 19.2859ZM20.3396 17.12C20.3396 16.3767 20.486 15.6407 20.7705 14.954L18.9227 14.1886C18.5377 15.118 18.3396 16.114 18.3396 17.12H20.3396ZM20.7705 14.954C21.0549 14.2673 21.4718 13.6433 21.9974 13.1177L20.5832 11.7035C19.8719 12.4148 19.3076 13.2593 18.9227 14.1886L20.7705 14.954ZM21.9974 13.1177C22.523 12.5922 23.1469 12.1752 23.8336 11.8908L23.0683 10.043C22.1389 10.428 21.2945 10.9922 20.5832 11.7035L21.9974 13.1177ZM23.8336 11.8908C24.5203 11.6064 25.2563 11.46 25.9996 11.46V9.45996C24.9937 9.45996 23.9976 9.65809 23.0683 10.043L23.8336 11.8908ZM25.9996 11.46C27.5007 11.46 28.9404 12.0563 30.0018 13.1177L31.416 11.7035C29.9795 10.267 28.0312 9.45996 25.9996 9.45996V11.46ZM30.0018 13.1177C31.0633 14.1792 31.6596 15.6188 31.6596 17.12H33.6596C33.6596 15.0884 32.8526 13.1401 31.416 11.7035L30.0018 13.1177ZM31.6596 17.12C31.6596 18.6211 31.0633 20.0607 30.0018 21.1222L31.416 22.5364C32.8526 21.0999 33.6596 19.1515 33.6596 17.12H31.6596ZM30.0018 21.1222C28.9404 22.1836 27.5007 22.78 25.9996 22.78V24.78C28.0312 24.78 29.9795 23.9729 31.416 22.5364L30.0018 21.1222ZM11.4596 35.3V34.88H9.45961V35.3H11.4596ZM11.4596 34.88C11.4596 33.9676 11.822 33.0926 12.4672 32.4475L11.0529 31.0333C10.0328 32.0535 9.45961 33.4372 9.45961 34.88H11.4596ZM12.4672 32.4475C13.1123 31.8024 13.9873 31.44 14.8996 31.44V29.44C13.4568 29.44 12.0731 30.0131 11.0529 31.0333L12.4672 32.4475ZM14.8996 31.44H37.0996V29.44H14.8996V31.44ZM37.0996 31.44C38.012 31.44 38.8869 31.8024 39.5321 32.4475L40.9463 31.0333C39.9261 30.0131 38.5424 29.44 37.0996 29.44V31.44ZM39.5321 32.4475C40.1772 33.0926 40.5396 33.9676 40.5396 34.88H42.5396C42.5396 33.4372 41.9665 32.0535 40.9463 31.0333L39.5321 32.4475ZM40.5396 34.88V35.3H42.5396V34.88H40.5396ZM39.7396 36.1H12.2596V38.1H39.7396V36.1ZM40.5396 35.3C40.5396 35.7418 40.1814 36.1 39.7396 36.1V38.1C41.286 38.1 42.5396 36.8464 42.5396 35.3H40.5396ZM9.45961 35.3C9.45961 36.8464 10.7132 38.1 12.2596 38.1V36.1C11.8178 36.1 11.4596 35.7418 11.4596 35.3H9.45961Z" fill="url(#paint0_linear_201_1232)"/>
        <defs>
        <linearGradient id="paint0_linear_201_1232" x1="13.5971" y1="21.0477" x2="40.8709" y2="39.8724" gradientUnits="userSpaceOnUse">
        <stop stop-color="#C39D53"/>
        <stop offset="1" stop-color="#97733E"/>
        </linearGradient>
        </defs>
        </svg>
        