<svg width="21" height="22" viewBox="0 0 21 22" fill="none" xmlns="http://www.w3.org/2000/svg">
<path d="M16.6687 4.7963C15.8664 3.98614 14.9108 3.34377 13.8578 2.90661C12.8047 2.46946 11.6751 2.24627 10.535 2.25005C5.75745 2.25005 1.8637 6.1438 1.8637 10.9213C1.8637 12.4525 2.2662 13.94 3.0187 15.2525L1.7937 19.75L6.38745 18.5425C7.6562 19.2338 9.08245 19.6013 10.535 19.6013C15.3125 19.6013 19.2062 15.7075 19.2062 10.93C19.2062 8.6113 18.305 6.43255 16.6687 4.7963ZM10.535 18.1313C9.23995 18.1313 7.9712 17.7813 6.85995 17.125L6.59745 16.9675L3.86745 17.685L4.5937 15.025L4.4187 14.7538C3.69906 13.605 3.31701 12.2769 3.3162 10.9213C3.3162 6.9488 6.5537 3.7113 10.5262 3.7113C12.4512 3.7113 14.2625 4.4638 15.6187 5.8288C16.2904 6.49718 16.8226 7.29227 17.1846 8.16796C17.5466 9.04365 17.7311 9.9825 17.7275 10.93C17.745 14.9025 14.5075 18.1313 10.535 18.1313ZM14.4899 12.7413C14.2712 12.6363 13.2037 12.1113 13.0112 12.0325C12.8099 11.9625 12.67 11.9275 12.5212 12.1375C12.3725 12.3563 11.9612 12.8463 11.8387 12.9863C11.7162 13.135 11.585 13.1525 11.3662 13.0388C11.1475 12.9338 10.4475 12.6975 9.62495 11.9625C8.97745 11.385 8.5487 10.6763 8.41745 10.4575C8.29495 10.2388 8.39995 10.125 8.5137 10.0113C8.60995 9.91505 8.73245 9.75755 8.83745 9.63505C8.94245 9.51255 8.9862 9.4163 9.0562 9.2763C9.1262 9.12755 9.0912 9.00505 9.0387 8.90005C8.9862 8.79505 8.5487 7.72755 8.3737 7.29005C8.1987 6.87005 8.01495 6.92255 7.8837 6.9138H7.4637C7.31495 6.9138 7.08745 6.9663 6.8862 7.18505C6.6937 7.4038 6.1337 7.9288 6.1337 8.9963C6.1337 10.0638 6.91245 11.0963 7.01745 11.2363C7.12245 11.385 8.5487 13.5725 10.7187 14.5088C11.235 14.7363 11.6375 14.8675 11.9524 14.9638C12.4687 15.13 12.9412 15.1038 13.3175 15.0513C13.7375 14.99 14.6037 14.5263 14.7787 14.0188C14.9625 13.5113 14.9625 13.0825 14.9012 12.9863C14.84 12.89 14.7087 12.8463 14.4899 12.7413Z" fill="#F4F4F4" stroke="#F4F4F4" stroke-width="0.4"/>
</svg>
