<svg width="22" height="22" viewBox="0 0 22 22" fill="none" xmlns="http://www.w3.org/2000/svg">
<path d="M6.67498 2.61565L7.69611 2.30852C8.25549 2.13984 8.85713 2.18045 9.38877 2.42276C9.92041 2.66507 10.3457 3.09254 10.5854 3.6254L11.3746 5.38065C11.5806 5.83897 11.638 6.3503 11.5387 6.84289C11.4393 7.33548 11.1883 7.78461 10.8207 8.12727L9.51261 9.34614C9.4744 9.38175 9.45019 9.42986 9.44436 9.48177C9.40586 9.82915 9.64123 10.5055 10.1846 11.4461C10.5784 12.1295 10.9362 12.6099 11.2399 12.8785C11.4525 13.0666 11.5689 13.1069 11.6187 13.0929L13.3775 12.5548C13.8578 12.4079 14.372 12.4149 14.8481 12.575C15.3242 12.735 15.7382 13.04 16.0322 13.4473L17.1522 15.0013C17.4932 15.4737 17.6511 16.0539 17.5968 16.634C17.5424 17.2141 17.2793 17.7548 16.8565 18.1556L16.0804 18.8906C15.6689 19.2803 15.1635 19.5567 14.6135 19.6931C14.0635 19.8294 13.4875 19.8209 12.9417 19.6685C10.532 18.9956 8.37161 16.9621 6.43611 13.61C4.49886 10.2535 3.81811 7.36252 4.44636 4.93615C4.58739 4.39044 4.86661 3.89026 5.25711 3.48382C5.64761 3.07738 6.13535 2.77838 6.67498 2.61565ZM7.05473 3.87302C6.73089 3.97041 6.43758 4.14958 6.2031 4.39326C5.96862 4.63694 5.80085 4.93692 5.71598 5.26427C5.18923 7.30477 5.79211 9.86764 7.57361 12.9538C9.35336 16.0355 11.2687 17.8389 13.2961 18.405C13.6236 18.4964 13.9692 18.5013 14.2992 18.4194C14.6291 18.3376 14.9323 18.1716 15.1791 17.9378L15.9544 17.2028C16.1467 17.0206 16.2664 16.7748 16.2911 16.511C16.3159 16.2473 16.2441 15.9835 16.0891 15.7686L14.9691 14.2155C14.8355 14.0302 14.6471 13.8914 14.4306 13.8186C14.214 13.7458 13.9801 13.7426 13.7616 13.8095L11.9985 14.3494C10.9747 14.6539 10.0464 13.8305 9.04886 12.1024C8.37511 10.9386 8.06186 10.0374 8.14061 9.33652C8.18086 8.97252 8.35061 8.63652 8.61748 8.38627L9.92561 7.16739C10.0926 7.01155 10.2066 6.80734 10.2517 6.58341C10.2967 6.35947 10.2705 6.12706 10.1767 5.91877L9.38836 4.16352C9.27942 3.92131 9.08607 3.72701 8.8444 3.61688C8.60273 3.50676 8.32925 3.48832 8.07498 3.56502L7.05473 3.87302Z" fill="#F4F4F4" stroke="#F4F4F4" stroke-width="0.4"/>
</svg>
